<svg width="28" height="27" viewBox="0 0 28 27" fill="none" xmlns="http://www.w3.org/2000/svg">
<path d="M12.9808 0.0962772C10.9721 0.359936 9.00454 1.58331 7.8302 3.29182C6.9958 4.50465 0.691446 15.842 0.423614 16.6119C-0.256267 18.5524 -0.11205 20.7671 0.815061 22.6444C1.81428 24.6904 3.43157 26.0719 5.55363 26.7258L6.48074 27L13.9594 26.9895C21.0776 26.9789 21.469 26.9684 22.2416 26.768C24.8684 26.0825 26.8257 24.1841 27.7219 21.4421C27.9691 20.6933 28 20.4402 28 19.1219C28 17.7719 27.9794 17.5716 27.7219 16.8017C27.3819 15.8209 27.5158 16.074 24.271 10.3157C20.2226 3.11253 20.2535 3.17581 19.4603 2.34265C18.255 1.08764 16.6996 0.307205 14.938 0.0857315C14.0212 -0.0302773 13.98 -0.0302773 12.9808 0.0962772ZM15.5458 3.68204C16.2257 3.94569 17.194 4.6523 17.5855 5.17962C18.7083 6.68774 18.8731 8.55445 18.0593 10.2313C17.8945 10.5688 17.7606 10.9063 17.7606 10.9907C17.7606 11.075 17.9975 11.4231 18.2756 11.7711C18.8422 12.4671 18.9246 12.8152 18.5847 13.1632C18.2035 13.5534 17.8121 13.4374 17.2249 12.7941C16.6274 12.1297 16.4832 12.098 15.6797 12.446C15.2368 12.6359 14.9277 12.6781 14.0006 12.6886C12.8881 12.6886 12.8572 12.6781 12.064 12.2773C10.2407 11.3492 9.17966 9.34542 9.49899 7.41544C9.97285 4.46246 12.8881 2.65904 15.5458 3.68204ZM10.1583 12.7097C10.3849 12.9206 10.3952 13.3003 10.1892 13.9014C9.97285 14.5448 9.99345 14.9244 10.2716 15.1459C12.7027 17.0653 13.0838 20.1976 11.1472 22.2963C10.8485 22.6233 10.4055 23.0029 10.1583 23.1506C7.8302 24.5532 4.84284 23.6252 3.6891 21.1362C2.31904 18.1727 4.25567 14.7662 7.47995 14.4709C7.892 14.4288 8.30405 14.3549 8.40706 14.3127C8.49978 14.26 8.6749 13.912 8.79851 13.5323C8.92213 13.1527 9.08695 12.773 9.17966 12.6886C9.37538 12.4777 9.92134 12.4882 10.1583 12.7097ZM21.3351 14.5764C23.6838 15.2197 25.1878 17.5294 24.7757 19.8601C24.4255 21.8639 22.9112 23.3721 20.9334 23.7201C19.1821 24.0154 17.2661 23.0979 16.3493 21.5159C16.2051 21.2628 15.9888 21.0202 15.8755 20.978C15.7621 20.9359 15.3295 20.9675 14.9174 21.0624C14.1655 21.2206 14.1655 21.2206 13.8976 20.9675C13.5783 20.6616 13.5577 20.2082 13.8564 19.9339C13.9697 19.8179 14.3303 19.6703 14.6599 19.607C15.5046 19.4383 15.5973 19.3434 15.7518 18.4153C16.2051 15.7049 18.8422 13.9014 21.3351 14.5764Z" fill="#642F2F"/>
<path d="M13.0633 4.97923C10.7249 5.75966 10.1171 8.86029 11.9713 10.5372C13.1251 11.5812 15.0411 11.5391 16.1433 10.4422C16.8438 9.75673 17.0705 9.23996 17.122 8.2486C17.1632 7.49981 17.1323 7.30997 16.9159 6.8143C16.5657 6.03387 16.1021 5.52764 15.4326 5.19016C14.7527 4.85268 13.7123 4.75776 13.0633 4.97923Z" fill="#490617"/>
<path d="M6.83096 16.0423C5.5021 16.5486 4.76041 17.5505 4.6986 18.932C4.6368 20.0183 4.87372 20.6511 5.59481 21.3999C6.27469 22.0959 6.87216 22.3385 7.87138 22.3385C10.6115 22.3385 11.9816 18.8477 10.0346 16.8544C9.79771 16.6118 9.38566 16.3166 9.11783 16.19C8.52036 15.9263 7.34602 15.842 6.83096 16.0423Z" fill="#490617"/>
<path d="M19.0997 16.0845C18.4507 16.3271 17.5339 17.2868 17.3176 17.9512C16.6068 20.0816 17.9357 22.1698 20.0783 22.3174C21.3866 22.4018 22.5197 21.7374 23.0863 20.5667C23.3335 20.0605 23.3747 19.8285 23.3747 19.1219C23.3747 18.4153 23.3335 18.1833 23.0863 17.677C22.7772 17.0232 22.324 16.5591 21.6441 16.2005C21.0672 15.8947 19.759 15.8314 19.0997 16.0845Z" fill="#490617"/>
</svg>
