<?xml version="1.0" standalone="no"?>
<!DOCTYPE svg PUBLIC "-//W3C//DTD SVG 20010904//EN"
 "http://www.w3.org/TR/2001/REC-SVG-20010904/DTD/svg10.dtd">
<svg version="1.0" xmlns="http://www.w3.org/2000/svg"
 width="700.000000pt" height="700.000000pt" viewBox="0 0 700.000000 700.000000"
 preserveAspectRatio="xMidYMid meet">
<metadata>
Created by potrace 1.14, written by Peter Selinger 2001-2017
</metadata>
<g transform="translate(0.000000,700.000000) scale(0.100000,-0.100000)"
fill="#000000" stroke="none">
<path d="M3378 6865 c-2 -2 -26 -6 -53 -9 -151 -18 -215 -30 -325 -62 -387
-114 -709 -331 -984 -665 -50 -60 -316 -497 -316 -519 0 -4 -4 -10 -8 -12 -4
-1 -33 -48 -64 -103 -30 -55 -130 -230 -220 -390 -141 -249 -255 -450 -343
-610 -13 -22 -90 -161 -172 -310 -194 -349 -374 -678 -431 -785 -25 -47 -48
-89 -52 -95 -4 -5 -30 -53 -57 -105 -28 -52 -74 -140 -103 -195 -156 -293
-188 -381 -226 -615 -19 -112 -25 -407 -12 -532 9 -80 42 -241 67 -329 40
-139 165 -423 207 -470 8 -8 14 -19 14 -23 0 -11 93 -146 150 -217 58 -73 198
-217 249 -257 19 -15 48 -39 65 -53 162 -134 393 -248 687 -338 l166 -51 1754
5 c965 2 1795 7 1844 9 246 13 359 36 567 117 400 156 729 439 955 824 108
185 215 459 250 645 3 14 6 171 8 350 2 243 -1 345 -11 402 -20 112 -87 305
-154 443 -46 96 -234 441 -370 680 -13 22 -34 60 -48 85 -13 25 -28 50 -32 55
-4 6 -24 42 -45 80 -21 39 -75 135 -120 215 -45 80 -93 165 -107 190 -14 25
-54 97 -90 160 -36 63 -78 138 -93 165 -15 28 -45 79 -65 115 -20 36 -50 88
-65 115 -38 69 -241 428 -310 550 -32 55 -71 125 -88 155 -17 30 -41 72 -54
92 -13 21 -23 42 -23 48 0 5 -4 10 -10 10 -5 0 -10 5 -10 11 0 17 -205 355
-274 452 -163 229 -430 451 -691 578 -175 84 -406 154 -579 175 -23 3 -54 7
-71 10 -35 6 -302 14 -307 9z m312 -861 c283 -54 596 -257 745 -484 243 -370
272 -794 83 -1200 -71 -153 -82 -187 -67 -221 6 -17 55 -88 107 -157 127 -171
141 -201 134 -288 -3 -33 -76 -109 -117 -121 -77 -24 -139 9 -273 143 -56 57
-117 111 -134 120 -50 26 -105 19 -229 -30 -156 -60 -197 -66 -474 -66 -191
-1 -250 8 -339 47 -408 182 -662 487 -746 896 -22 110 -20 316 4 425 93 420
350 727 741 885 51 21 138 43 205 54 19 3 37 7 39 8 10 10 257 2 321 -11z
m-1215 -2280 c67 -15 103 -61 107 -136 2 -52 -6 -96 -39 -208 -47 -162 -42
-231 25 -292 110 -99 253 -252 298 -318 173 -252 252 -538 222 -809 -16 -150
-47 -259 -108 -382 -69 -139 -133 -225 -259 -347 -129 -127 -249 -200 -413
-255 -326 -109 -674 -64 -968 126 -88 57 -102 69 -200 168 -141 144 -244 334
-297 548 -23 91 -27 127 -26 256 0 149 2 170 25 275 13 61 13 59 20 80 3 8 14
38 23 65 53 149 156 307 280 431 190 188 442 303 720 328 63 6 88 10 170 27
67 13 87 43 157 239 41 115 73 177 100 191 49 26 88 29 163 13z m2794 -484
c42 -9 101 -25 131 -35 56 -18 221 -93 230 -104 3 -3 17 -12 31 -19 14 -8 39
-25 54 -38 15 -13 31 -24 35 -24 13 0 169 -158 217 -220 83 -108 157 -247 189
-357 43 -142 53 -216 50 -368 -4 -147 -5 -154 -37 -275 -117 -442 -457 -760
-914 -856 -99 -21 -266 -21 -378 0 -229 43 -448 158 -607 316 -87 87 -112 119
-195 250 -16 25 -47 62 -69 84 l-40 38 -76 -5 c-41 -3 -120 -15 -175 -26 -94
-18 -143 -25 -173 -22 -7 1 -32 19 -57 42 -77 71 -93 156 -42 238 24 40 128
92 219 109 150 29 205 59 234 129 9 20 28 98 44 172 33 162 75 279 136 386
181 319 487 538 827 594 88 14 283 10 366 -9z"/>
<path d="M3380 5649 c-25 -4 -61 -10 -80 -13 -19 -4 -82 -30 -140 -58 -89 -44
-118 -65 -191 -138 -114 -113 -198 -257 -224 -386 -5 -21 -10 -46 -13 -54 -2
-8 -5 -69 -7 -136 -4 -172 31 -302 119 -449 17 -27 35 -55 41 -62 5 -6 27 -32
49 -57 210 -252 631 -323 936 -158 98 54 204 149 284 255 91 122 130 282 129
527 0 129 -45 258 -137 395 -111 166 -279 281 -470 319 -93 20 -225 26 -296
15z"/>
<path d="M1818 2884 c-2 -1 -22 -5 -46 -9 -92 -13 -273 -113 -368 -202 -99
-94 -178 -238 -210 -385 -19 -90 -26 -281 -12 -368 22 -141 96 -276 224 -404
133 -134 239 -193 397 -219 154 -25 325 -8 452 46 291 123 477 414 478 747 1
100 -10 188 -30 240 -3 8 -7 21 -9 28 -5 27 -64 144 -95 189 -18 27 -60 75
-94 109 -131 132 -253 194 -435 221 -38 5 -248 12 -252 7z"/>
<path d="M4898 2879 c-141 -22 -235 -75 -368 -209 -173 -173 -237 -315 -245
-545 -18 -486 354 -858 830 -832 298 17 520 165 656 436 54 109 71 190 71 351
1 190 -10 247 -73 373 -49 99 -76 139 -141 205 -107 110 -225 179 -358 208
-81 17 -296 25 -372 13z"/>
</g>
</svg>
